REM DIRINDEX 1\2,1\3,1\4,1\5
REM DIRNAME "folder01","folder02","folder03","folder04","folder05"
TITLE ""
FILE "1Q_t_0178-0187.mp3" MP3
  TRACK 01 AUDIO
    TITLE "3:cjc172_1448"
    INDEX 01 00:00:00
  TRACK 02 AUDIO
    TITLE "0:"
    INDEX 01 00:00:73
  TRACK 03 AUDIO
    TITLE "4:cjc172_1449"
    INDEX 01 00:01:14
  TRACK 04 AUDIO
    TITLE "0:"
    INDEX 01 00:02:31
  TRACK 05 AUDIO
    TITLE "5:cjc172_1450"
    INDEX 01 00:02:44
  TRACK 06 AUDIO
    TITLE "0:"
    INDEX 01 00:09:50
  TRACK 07 AUDIO
    TITLE "3:cjc172_1451"
    INDEX 01 00:10:30
  TRACK 08 AUDIO
    TITLE "0:"
    INDEX 01 00:11:47
  TRACK 09 AUDIO
    TITLE "4:cjc172_1452"
    INDEX 01 00:11:65
  TRACK 10 AUDIO
    TITLE "0:"
    INDEX 01 00:14:40
  TRACK 11 AUDIO
    TITLE "5:cjc172_1453"
    INDEX 01 00:14:55
  TRACK 12 AUDIO
    TITLE "0:"
    INDEX 01 00:21:67
  TRACK 13 AUDIO
    TITLE "3:cjc172_1454"
    INDEX 01 00:22:49
  TRACK 14 AUDIO
    TITLE "0:"
    INDEX 01 00:24:01
  TRACK 15 AUDIO
    TITLE "4:cjc172_1455"
    INDEX 01 00:24:21
  TRACK 16 AUDIO
    TITLE "0:"
    INDEX 01 00:25:26
  TRACK 17 AUDIO
    TITLE "5:cjc172_1456"
    INDEX 01 00:25:42
  TRACK 18 AUDIO
    TITLE "0:"
    INDEX 01 00:33:00
  TRACK 19 AUDIO
    TITLE "3:cjc172_1457"
    INDEX 01 00:33:55
  TRACK 20 AUDIO
    TITLE "0:"
    INDEX 01 00:35:16
  TRACK 21 AUDIO
    TITLE "4:cjc172_1458"
    INDEX 01 00:35:38
  TRACK 22 AUDIO
    TITLE "0:"
    INDEX 01 00:38:19
  TRACK 23 AUDIO
    TITLE "5:cjc172_1459"
    INDEX 01 00:38:32
  TRACK 24 AUDIO
    TITLE "0:"
    INDEX 01 00:42:73
  TRACK 25 AUDIO
    TITLE "3:cjc172_1460"
    INDEX 01 00:43:53
  TRACK 26 AUDIO
    TITLE "0:"
    INDEX 01 00:45:05
  TRACK 27 AUDIO
    TITLE "4:cjc172_1461"
    INDEX 01 00:45:21
  TRACK 28 AUDIO
    TITLE "0:"
    INDEX 01 00:48:05
  TRACK 29 AUDIO
    TITLE "5:cjc172_1462"
    INDEX 01 00:48:19
  TRACK 30 AUDIO
    TITLE "0:"
    INDEX 01 00:52:38
  TRACK 31 AUDIO
    TITLE "3:cjc172_1463"
    INDEX 01 00:53:16
  TRACK 32 AUDIO
    TITLE "0:"
    INDEX 01 00:54:49
  TRACK 33 AUDIO
    TITLE "4:cjc172_1464"
    INDEX 01 00:54:65
  TRACK 34 AUDIO
    TITLE "0:"
    INDEX 01 00:56:17
  TRACK 35 AUDIO
    TITLE "5:cjc172_1465"
    INDEX 01 00:56:32
  TRACK 36 AUDIO
    TITLE "0:"
    INDEX 01 01:04:30
  TRACK 37 AUDIO
    TITLE "3:cjc172_1466"
    INDEX 01 01:05:04
  TRACK 38 AUDIO
    TITLE "0:"
    INDEX 01 01:06:29
  TRACK 39 AUDIO
    TITLE "4:cjc172_1467"
    INDEX 01 01:06:44
  TRACK 40 AUDIO
    TITLE "0:"
    INDEX 01 01:09:33
  TRACK 41 AUDIO
    TITLE "5:cjc172_1468"
    INDEX 01 01:09:49
  TRACK 42 AUDIO
    TITLE "0:"
    INDEX 01 01:16:70
  TRACK 43 AUDIO
    TITLE "3:cjc172_1469"
    INDEX 01 01:17:48
  TRACK 44 AUDIO
    TITLE "0:"
    INDEX 01 01:18:61
  TRACK 45 AUDIO
    TITLE "4:cjc172_1470"
    INDEX 01 01:19:04
  TRACK 46 AUDIO
    TITLE "0:"
    INDEX 01 01:23:23
  TRACK 47 AUDIO
    TITLE "5:cjc172_1471"
    INDEX 01 01:23:41
  TRACK 48 AUDIO
    TITLE "0:"
    INDEX 01 01:29:24
  TRACK 49 AUDIO
    TITLE "3:cjc172_1472"
    INDEX 01 01:30:00
  TRACK 50 AUDIO
    TITLE "0:"
    INDEX 01 01:31:13
  TRACK 51 AUDIO
    TITLE "4:cjc172_1473"
    INDEX 01 01:31:29
  TRACK 52 AUDIO
    TITLE "0:"
    INDEX 01 01:34:45
  TRACK 53 AUDIO
    TITLE "5:cjc172_1474"
    INDEX 01 01:34:60
  TRACK 54 AUDIO
    TITLE "0:"
    INDEX 01 01:41:17
  TRACK 55 AUDIO
    TITLE "3:cjc172_1475"
    INDEX 01 01:41:68
  TRACK 56 AUDIO
    TITLE "0:"
    INDEX 01 01:43:14
  TRACK 57 AUDIO
    TITLE "4:cjc172_1476"
    INDEX 01 01:43:34
  TRACK 58 AUDIO
    TITLE "0:"
    INDEX 01 01:45:48
  TRACK 59 AUDIO
    TITLE "5:cjc172_1477"
    INDEX 01 01:45:62
  TRACK 60 AUDIO
    TITLE "0:"
    INDEX 01 01:52:09
